<svg width="397" height="78" viewBox="0 0 397 78" fill="none" xmlns="http://www.w3.org/2000/svg">
<g filter="url(#filter0_d)">
<path d="M8 0.375L27.0312 66H31.4375L36.4062 51.1875L21.5 0.375H8ZM32.0938 17.8125L38.2812 38.8125H39.2188C39.6562 37.375 40.3125 35.2188 41.1875 32.3438C42.375 28.2812 43.2812 25.25 43.9062 23.25L56.2812 66H60.6875L65.5625 51.1875L50.75 0.375H37.25L32.0938 17.8125ZM61.7188 17.8125L67.9062 38.8125H68.8438L80.375 0.375H66.875L61.7188 17.8125ZM85.25 66V0.375H119.375V13.5H98.4688V26.8125H110.562V40.0312H98.4688V52.7812H119.375V66H85.25ZM125.75 66V0.375H138.875V66H125.75ZM144.031 66V54.4688H144.5C148.25 54.4688 150.75 52.9062 152 49.7812C152.438 48.7812 152.656 47.75 152.656 46.6875C152.656 43.5625 151.406 41.3125 148.906 39.9375C147.656 39.25 146.281 38.9062 144.781 38.9062H144.031V27.4688H144.781C148.281 27.4688 150.688 25.9688 152 22.9688C152.438 21.9062 152.656 20.8125 152.656 19.6875C152.656 16.625 151.375 14.375 148.812 12.9375C147.5 12.25 146.062 11.9062 144.5 11.9062H144.031V0.375H146.281C154.406 0.375 160.125 3.34375 163.438 9.28125C165 12.1562 165.781 15.3125 165.781 18.75C165.781 24.1875 164.125 28.5938 160.812 31.9688C160.312 32.4062 159.844 32.8125 159.406 33.1875C163.031 35.875 165.125 39.9688 165.688 45.4688C165.75 46.2188 165.781 46.9375 165.781 47.625C165.781 53.6875 163.656 58.4375 159.406 61.875C155.906 64.625 151.531 66 146.281 66H144.031ZM170.562 51.1875L182.469 46.9688C182.469 48.5312 182.906 49.9062 183.781 51.0938C184.656 52.2812 185.531 53.0625 186.406 53.4375L187.719 54.0938V66.2812C182.406 66.2812 177.875 63.9688 174.125 59.3438C171.812 56.4062 170.625 53.6875 170.562 51.1875ZM171.312 18.375C171.312 11.5 174.25 6.34375 180.125 2.90625C182.812 1.28125 185.344 0.4375 187.719 0.375V12.75C186.156 13.1875 185 14.3125 184.25 16.125C184 16.6875 183.875 17.2813 183.875 17.9062C183.875 20.4688 185.781 22.6562 189.594 24.4688C190.406 24.8438 191.719 25.4062 193.531 26.1562C196.531 27.3438 198.656 28.3125 199.906 29.0625C204.969 32.0625 208.344 35.125 210.031 38.25C211.281 40.6875 211.906 43.4062 211.906 46.4062C211.906 52.0938 209.75 56.9688 205.438 61.0312C201.75 64.5312 197.562 66.2812 192.875 66.2812V54.0938C195.312 53.7812 197.031 52.5 198.031 50.25C198.469 49.25 198.688 48.1562 198.688 46.9688C198.688 43.7812 196.312 41.1562 191.562 39.0938C190.688 38.7188 189.312 38.1875 187.438 37.5C185.25 36.75 183.719 36.1562 182.844 35.7188C177.469 33.1562 174.031 29.8438 172.531 25.7812C171.719 23.5938 171.312 21.125 171.312 18.375ZM192.875 12.75V0.375C198.125 0.375 202.531 2.59375 206.094 7.03125C208.156 9.65625 209.219 12.0313 209.281 14.1562L197.094 18.1875C197.094 15.5625 195.812 13.7812 193.25 12.8438C193 12.7813 192.875 12.75 192.875 12.75ZM217.719 66V24.375H218.562L230.938 54.0938V66H217.719ZM217.719 9V0.375H228.031L245.938 43.7812L255.875 21.375H256.812V51.8438L250.531 66H241.438L217.719 9ZM261.875 66V0.375H275.094V66H261.875ZM282.969 66V0.375H296.188V66H282.969ZM301.531 13.3125V0.375H342.125V13.3125H328.438V66H315.219V13.3125H301.531ZM347.281 66V0.375H360.5V26.5312H364.156V39.4688H360.5V66H347.281ZM369.312 39.4688V26.5312H372.969V0.375H386.188V66H372.969V39.4688H369.312Z" fill="url(#paint0_linear)"/>
</g>
<mask id="mask0" style="mask-type:alpha" maskUnits="userSpaceOnUse" x="10" y="7" width="376" height="52">
<rect x="10" y="7" width="376" height="52" fill="#EFF0F1"/>
</mask>
<g mask="url(#mask0)">
<g filter="url(#filter1_d)">
<path d="M8 1.375L27.0312 67H31.4375L36.4062 52.1875L21.5 1.375H8ZM32.0938 18.8125L38.2812 39.8125H39.2188C39.6562 38.375 40.3125 36.2188 41.1875 33.3438C42.375 29.2812 43.2812 26.25 43.9062 24.25L56.2812 67H60.6875L65.5625 52.1875L50.75 1.375H37.25L32.0938 18.8125ZM61.7188 18.8125L67.9062 39.8125H68.8438L80.375 1.375H66.875L61.7188 18.8125ZM85.25 67V1.375H119.375V14.5H98.4688V27.8125H110.562V41.0312H98.4688V53.7812H119.375V67H85.25ZM125.75 67V1.375H138.875V67H125.75ZM144.031 67V55.4688H144.5C148.25 55.4688 150.75 53.9062 152 50.7812C152.438 49.7812 152.656 48.75 152.656 47.6875C152.656 44.5625 151.406 42.3125 148.906 40.9375C147.656 40.25 146.281 39.9062 144.781 39.9062H144.031V28.4688H144.781C148.281 28.4688 150.688 26.9688 152 23.9688C152.438 22.9062 152.656 21.8125 152.656 20.6875C152.656 17.625 151.375 15.375 148.812 13.9375C147.5 13.25 146.062 12.9062 144.5 12.9062H144.031V1.375H146.281C154.406 1.375 160.125 4.34375 163.438 10.2812C165 13.1562 165.781 16.3125 165.781 19.75C165.781 25.1875 164.125 29.5938 160.812 32.9688C160.312 33.4062 159.844 33.8125 159.406 34.1875C163.031 36.875 165.125 40.9688 165.688 46.4688C165.75 47.2188 165.781 47.9375 165.781 48.625C165.781 54.6875 163.656 59.4375 159.406 62.875C155.906 65.625 151.531 67 146.281 67H144.031Z" fill="#6F6F6F"/>
<path d="M170.562 52.1875L182.469 47.9688C182.469 49.5312 182.906 50.9062 183.781 52.0938C184.656 53.2812 185.531 54.0625 186.406 54.4375L187.719 55.0938V67.2812C182.406 67.2812 177.875 64.9688 174.125 60.3438C171.812 57.4062 170.625 54.6875 170.562 52.1875ZM171.312 19.375C171.312 12.5 174.25 7.34375 180.125 3.90625C182.812 2.28125 185.344 1.4375 187.719 1.375V13.75C186.156 14.1875 185 15.3125 184.25 17.125C184 17.6875 183.875 18.2813 183.875 18.9062C183.875 21.4688 185.781 23.6562 189.594 25.4688C190.406 25.8438 191.719 26.4062 193.531 27.1562C196.531 28.3438 198.656 29.3125 199.906 30.0625C204.969 33.0625 208.344 36.125 210.031 39.25C211.281 41.6875 211.906 44.4062 211.906 47.4062C211.906 53.0938 209.75 57.9688 205.438 62.0312C201.75 65.5312 197.562 67.2812 192.875 67.2812V55.0938C195.312 54.7812 197.031 53.5 198.031 51.25C198.469 50.25 198.688 49.1562 198.688 47.9688C198.688 44.7812 196.312 42.1562 191.562 40.0938C190.688 39.7188 189.312 39.1875 187.438 38.5C185.25 37.75 183.719 37.1562 182.844 36.7188C177.469 34.1562 174.031 30.8438 172.531 26.7812C171.719 24.5938 171.312 22.125 171.312 19.375ZM192.875 13.75V1.375C198.125 1.375 202.531 3.59375 206.094 8.03125C208.156 10.6562 209.219 13.0313 209.281 15.1562L197.094 19.1875C197.094 16.5625 195.812 14.7812 193.25 13.8438C193 13.7813 192.875 13.75 192.875 13.75ZM217.719 67V25.375H218.562L230.938 55.0938V67H217.719ZM217.719 10V1.375H228.031L245.938 44.7812L255.875 22.375H256.812V52.8438L250.531 67H241.438L217.719 10ZM261.875 67V1.375H275.094V67H261.875ZM282.969 67V1.375H296.188V67H282.969ZM301.531 14.3125V1.375H342.125V14.3125H328.438V67H315.219V14.3125H301.531ZM347.281 67V1.375H360.5V27.5312H364.156V40.4688H360.5V67H347.281ZM369.312 40.4688V27.5312H372.969V1.375H386.188V67H372.969V40.4688H369.312Z" fill="#06D6A0"/>
</g>
</g>
<rect x="102" y="32" width="193" height="5" fill="white"/>
<path d="M129.938 48.324C128.834 48.324 127.76 48.18 126.716 47.892C125.672 47.604 124.55 47.154 123.35 46.542L122.108 48H120.992L120.29 38.874L121.784 38.64C122.552 41.316 123.566 43.254 124.826 44.454C126.098 45.654 127.784 46.254 129.884 46.254C131.384 46.254 132.578 45.894 133.466 45.174C134.366 44.454 134.816 43.464 134.816 42.204C134.816 41.448 134.498 40.746 133.862 40.098C133.238 39.438 132.158 38.736 130.622 37.992L127.724 36.552C125.372 35.388 123.644 34.098 122.54 32.682C121.436 31.266 120.884 29.616 120.884 27.732C120.884 26.28 121.286 24.99 122.09 23.862C122.894 22.722 123.98 21.828 125.348 21.18C126.728 20.532 128.288 20.208 130.028 20.208C132.464 20.208 134.552 20.946 136.292 22.422L137.138 20.532H138.326L138.668 28.416H137.102C135.926 24.348 133.628 22.314 130.208 22.314C128.984 22.314 128.03 22.614 127.346 23.214C126.662 23.814 126.32 24.642 126.32 25.698C126.32 26.514 126.626 27.246 127.238 27.894C127.85 28.53 128.912 29.232 130.424 30L133.268 31.458C135.524 32.61 137.144 33.876 138.128 35.256C139.124 36.636 139.622 38.292 139.622 40.224C139.622 41.76 139.196 43.14 138.344 44.364C137.492 45.588 136.334 46.554 134.87 47.262C133.406 47.97 131.762 48.324 129.938 48.324ZM154.315 48V46.686L158.581 45.894V22.53H152.785C152.017 23.502 151.363 24.54 150.823 25.644C150.295 26.748 149.857 27.786 149.509 28.758H148.123L149.419 20.586H173.737L175.051 28.758H173.665C173.305 27.786 172.879 26.748 172.387 25.644C171.895 24.54 171.265 23.502 170.497 22.53H164.683V45.894L168.913 46.686V48H154.315ZM197.192 48.378C194.96 48.378 192.986 48.012 191.27 47.28C189.554 46.536 188.102 45.516 186.914 44.22C185.738 42.924 184.844 41.43 184.232 39.738C183.632 38.034 183.332 36.216 183.332 34.284C183.332 32.352 183.632 30.534 184.232 28.83C184.844 27.126 185.738 25.632 186.914 24.348C188.102 23.052 189.554 22.038 191.27 21.306C192.986 20.574 194.96 20.208 197.192 20.208C199.424 20.208 201.404 20.574 203.132 21.306C204.86 22.038 206.312 23.052 207.488 24.348C208.676 25.632 209.57 27.126 210.17 28.83C210.782 30.534 211.088 32.352 211.088 34.284C211.088 36.216 210.782 38.034 210.17 39.738C209.57 41.43 208.676 42.924 207.488 44.22C206.312 45.516 204.86 46.536 203.132 47.28C201.404 48.012 199.424 48.378 197.192 48.378ZM197.192 46.308C198.344 46.308 199.322 46.056 200.126 45.552C200.93 45.036 201.59 44.352 202.106 43.5C202.622 42.648 203.018 41.7 203.294 40.656C203.582 39.6 203.78 38.52 203.888 37.416C204.008 36.312 204.068 35.268 204.068 34.284C204.068 33.3 204.014 32.268 203.906 31.188C203.798 30.096 203.6 29.028 203.312 27.984C203.036 26.94 202.64 25.998 202.124 25.158C201.62 24.306 200.96 23.628 200.144 23.124C199.34 22.62 198.356 22.368 197.192 22.368C196.04 22.368 195.062 22.62 194.258 23.124C193.466 23.628 192.812 24.306 192.296 25.158C191.792 25.998 191.396 26.94 191.108 27.984C190.82 29.028 190.622 30.096 190.514 31.188C190.406 32.268 190.352 33.3 190.352 34.284C190.352 35.268 190.406 36.312 190.514 37.416C190.622 38.52 190.82 39.6 191.108 40.656C191.396 41.7 191.792 42.648 192.296 43.5C192.812 44.352 193.466 45.036 194.258 45.552C195.062 46.056 196.04 46.308 197.192 46.308ZM220.04 48V46.686L223.082 45.894V22.638L220.04 21.882V20.586H232.892C234.764 20.586 236.414 20.886 237.842 21.486C239.27 22.074 240.386 22.95 241.19 24.114C241.994 25.266 242.396 26.688 242.396 28.38C242.396 30.108 241.958 31.554 241.082 32.718C240.218 33.882 239 34.746 237.428 35.31L244.286 45.984L247.544 46.686V48H237.824L230.642 36.066H229.202V45.894L233.27 46.686V48H220.04ZM229.202 34.14H229.706C230.99 34.14 232.028 33.966 232.82 33.618C233.612 33.27 234.254 32.802 234.746 32.214C235.274 31.626 235.646 30.972 235.862 30.252C236.078 29.52 236.186 28.776 236.186 28.02C236.186 26.736 235.898 25.668 235.322 24.816C234.746 23.952 233.996 23.334 233.072 22.962C232.664 22.794 232.22 22.68 231.74 22.62C231.272 22.548 230.672 22.512 229.94 22.512H229.202V34.14ZM254.043 48V46.686L257.085 45.984V22.548L254.043 21.882V20.586H275.841L276.507 28.416H275.031C274.719 27.48 274.335 26.508 273.879 25.5C273.423 24.492 272.889 23.52 272.277 22.584H263.205V32.538H267.687C268.095 31.866 268.419 31.194 268.659 30.522C268.899 29.838 269.091 29.172 269.235 28.524H270.729V38.478H269.235C269.091 37.83 268.893 37.164 268.641 36.48C268.389 35.796 268.071 35.124 267.687 34.464H263.205V45.966H272.061C272.841 44.922 273.471 43.872 273.951 42.816C274.431 41.76 274.887 40.71 275.319 39.666H277.173L275.661 48H254.043Z" fill="black"/>
<defs>
<filter id="filter0_d" x="8" y="0.375" width="378.188" height="66.9062" filterUnits="userSpaceOnUse" color-interpolation-filters="sRGB">
<feFlood flood-opacity="0" result="BackgroundImageFix"/>
<feColorMatrix in="SourceAlpha" type="matrix" values="0 0 0 0 0 0 0 0 0 0 0 0 0 0 0 0 0 0 127 0" result="hardAlpha"/>
<feOffset dy="1"/>
<feComposite in2="hardAlpha" operator="out"/>
<feColorMatrix type="matrix" values="0 0 0 0 0 0 0 0 0 0 0 0 0 0 0 0 0 0 0.12 0"/>
<feBlend mode="normal" in2="BackgroundImageFix" result="effect1_dropShadow"/>
<feBlend mode="normal" in="SourceGraphic" in2="effect1_dropShadow" result="shape"/>
</filter>
<filter id="filter1_d" x="8" y="1.375" width="378.188" height="66.9062" filterUnits="userSpaceOnUse" color-interpolation-filters="sRGB">
<feFlood flood-opacity="0" result="BackgroundImageFix"/>
<feColorMatrix in="SourceAlpha" type="matrix" values="0 0 0 0 0 0 0 0 0 0 0 0 0 0 0 0 0 0 127 0" result="hardAlpha"/>
<feOffset dy="1"/>
<feComposite in2="hardAlpha" operator="out"/>
<feColorMatrix type="matrix" values="0 0 0 0 0 0 0 0 0 0 0 0 0 0 0 0 0 0 0.12 0"/>
<feBlend mode="normal" in2="BackgroundImageFix" result="effect1_dropShadow"/>
<feBlend mode="normal" in="SourceGraphic" in2="effect1_dropShadow" result="shape"/>
</filter>
<linearGradient id="paint0_linear" x1="0" y1="39" x2="402.139" y2="39" gradientUnits="userSpaceOnUse">
<stop stop-color="#CBCBCB"/>
<stop offset="1" stop-color="#DADADA"/>
</linearGradient>
</defs>
</svg>
