<svg width="379" height="68" viewBox="0 0 379 68" fill="none" xmlns="http://www.w3.org/2000/svg">
<g filter="url(#filter0_d)">
<path d="M0 0.375L19.0312 66H23.4375L28.4062 51.1875L13.5 0.375H0ZM24.0938 17.8125L30.2812 38.8125H31.2188C31.6562 37.375 32.3125 35.2188 33.1875 32.3438C34.375 28.2812 35.2812 25.25 35.9062 23.25L48.2812 66H52.6875L57.5625 51.1875L42.75 0.375H29.25L24.0938 17.8125ZM53.7188 17.8125L59.9062 38.8125H60.8438L72.375 0.375H58.875L53.7188 17.8125ZM77.25 66V0.375H111.375V13.5H90.4688V26.8125H102.562V40.0312H90.4688V52.7812H111.375V66H77.25ZM117.75 66V0.375H130.875V66H117.75ZM136.031 66V54.4688H136.5C140.25 54.4688 142.75 52.9062 144 49.7812C144.438 48.7812 144.656 47.75 144.656 46.6875C144.656 43.5625 143.406 41.3125 140.906 39.9375C139.656 39.25 138.281 38.9062 136.781 38.9062H136.031V27.4688H136.781C140.281 27.4688 142.688 25.9688 144 22.9688C144.438 21.9062 144.656 20.8125 144.656 19.6875C144.656 16.625 143.375 14.375 140.812 12.9375C139.5 12.25 138.062 11.9062 136.5 11.9062H136.031V0.375H138.281C146.406 0.375 152.125 3.34375 155.438 9.28125C157 12.1562 157.781 15.3125 157.781 18.75C157.781 24.1875 156.125 28.5938 152.812 31.9688C152.312 32.4062 151.844 32.8125 151.406 33.1875C155.031 35.875 157.125 39.9688 157.688 45.4688C157.75 46.2188 157.781 46.9375 157.781 47.625C157.781 53.6875 155.656 58.4375 151.406 61.875C147.906 64.625 143.531 66 138.281 66H136.031ZM162.562 51.1875L174.469 46.9688C174.469 48.5312 174.906 49.9062 175.781 51.0938C176.656 52.2812 177.531 53.0625 178.406 53.4375L179.719 54.0938V66.2812C174.406 66.2812 169.875 63.9688 166.125 59.3438C163.812 56.4062 162.625 53.6875 162.562 51.1875ZM163.312 18.375C163.312 11.5 166.25 6.34375 172.125 2.90625C174.812 1.28125 177.344 0.4375 179.719 0.375V12.75C178.156 13.1875 177 14.3125 176.25 16.125C176 16.6875 175.875 17.2813 175.875 17.9062C175.875 20.4688 177.781 22.6562 181.594 24.4688C182.406 24.8438 183.719 25.4062 185.531 26.1562C188.531 27.3438 190.656 28.3125 191.906 29.0625C196.969 32.0625 200.344 35.125 202.031 38.25C203.281 40.6875 203.906 43.4062 203.906 46.4062C203.906 52.0938 201.75 56.9688 197.438 61.0312C193.75 64.5312 189.562 66.2812 184.875 66.2812V54.0938C187.312 53.7812 189.031 52.5 190.031 50.25C190.469 49.25 190.688 48.1562 190.688 46.9688C190.688 43.7812 188.312 41.1562 183.562 39.0938C182.688 38.7188 181.312 38.1875 179.438 37.5C177.25 36.75 175.719 36.1562 174.844 35.7188C169.469 33.1562 166.031 29.8438 164.531 25.7812C163.719 23.5938 163.312 21.125 163.312 18.375ZM184.875 12.75V0.375C190.125 0.375 194.531 2.59375 198.094 7.03125C200.156 9.65625 201.219 12.0313 201.281 14.1562L189.094 18.1875C189.094 15.5625 187.812 13.7812 185.25 12.8438C185 12.7813 184.875 12.75 184.875 12.75ZM209.719 66V24.375H210.562L222.938 54.0938V66H209.719ZM209.719 9V0.375H220.031L237.938 43.7812L247.875 21.375H248.812V51.8438L242.531 66H233.438L209.719 9ZM253.875 66V0.375H267.094V66H253.875ZM274.969 66V0.375H288.188V66H274.969ZM293.531 13.3125V0.375H334.125V13.3125H320.438V66H307.219V13.3125H293.531ZM339.281 66V0.375H352.5V26.5312H356.156V39.4688H352.5V66H339.281ZM361.312 39.4688V26.5312H364.969V0.375H378.188V66H364.969V39.4688H361.312Z" fill="url(#paint0_linear)"/>
</g>
<defs>
<filter id="filter0_d" x="0" y="0.375" width="378.188" height="66.9062" filterUnits="userSpaceOnUse" color-interpolation-filters="sRGB">
<feFlood flood-opacity="0" result="BackgroundImageFix"/>
<feColorMatrix in="SourceAlpha" type="matrix" values="0 0 0 0 0 0 0 0 0 0 0 0 0 0 0 0 0 0 127 0" result="hardAlpha"/>
<feOffset dy="1"/>
<feComposite in2="hardAlpha" operator="out"/>
<feColorMatrix type="matrix" values="0 0 0 0 0 0 0 0 0 0 0 0 0 0 0 0 0 0 0.12 0"/>
<feBlend mode="normal" in2="BackgroundImageFix" result="effect1_dropShadow"/>
<feBlend mode="normal" in="SourceGraphic" in2="effect1_dropShadow" result="shape"/>
</filter>
<linearGradient id="paint0_linear" x1="-8" y1="39" x2="394.139" y2="39" gradientUnits="userSpaceOnUse">
<stop/>
<stop offset="1" stop-color="white"/>
</linearGradient>
</defs>
</svg>
